<?xml version="1.0" encoding="utf-8"?>
<!-- Generator: Adobe Illustrator 24.1.3, SVG Export Plug-In . SVG Version: 6.00 Build 0)  -->
<svg version="1.1" xmlns="http://www.w3.org/2000/svg" xmlns:xlink="http://www.w3.org/1999/xlink" x="0px" y="0px"
	 viewBox="0 0 182 104" style="enable-background:new 0 0 182 104;" xml:space="preserve">
<style type="text/css">
	.st0{fill:#FF69B4;}
	.st1{opacity:0.5;fill:#FFFFFF;enable-background:new    ;}
	.st2{fill:#FFFFFF;}
</style>
<g id="bg">
	<path class="st0" d="M150.5,20.9c-1.7,0-3.4,0.1-5,0.4c-2.8,0.3-6.4,0.6-10.4-0.3c-4.6-1.1-9.8-4.9-12.2-6.9l0,0
		c-8.6-7.3-19.8-11.7-32-11.7c-12.2,0-23.4,4.4-32,11.7v0c-2.3,2-6.4,5.8-11,6.9c-5.9,1.4-11,0-14,0v0c-0.8-0.1-1.7-0.1-2.5-0.1
		C14.7,20.9,1,34.5,1,51.4c0,16.8,13.7,30.5,30.5,30.5c0.9,0,1.8,0,2.6-0.1c3,0,8-1.4,13.9,0c2,0.5,4,1.5,5.7,2.7
		c9.1,10.4,22.4,16.9,37.3,16.9c12.8,0,24.4-4.8,33.2-12.7v0c2.3-2,6.4-5.8,11-6.9c3.9-0.9,7.4-0.6,10.2-0.3
		c1.7,0.3,3.4,0.4,5.2,0.4c16.8,0,30.5-13.7,30.5-30.5C181,34.5,167.3,20.9,150.5,20.9z"/>
</g>
<g id="icons">
	<g>
		<path id="icon-shocked-5" class="st1" d="M31,35.9c-8.8,0-16,7.2-16,16s7.2,16,16,16s16-7.2,16-16S39.8,35.9,31,35.9z M25,49.9
			c-1.1,0-2-1.3-2-3c0-1.7,0.9-3,2-3s2,1.3,2,3C27,48.6,26.1,49.9,25,49.9z M31,61.9c-2.2,0-4-1.8-4-4s1.8-4,4-4s4,1.8,4,4
			S33.2,61.9,31,61.9z M37,49.9c-1.1,0-2-1.3-2-3c0-1.7,0.9-3,2-3s2,1.3,2,3C39,48.6,38.1,49.9,37,49.9z"/>
		<path id="icon-wondering-6" class="st2" d="M91,19.9c-17.6,0-32,14.4-32,32s14.4,32,32,32s32-14.4,32-32S108.6,19.9,91,19.9z
			 M103,35.9c2.2,0,4,1.8,4,4s-1.8,4-4,4s-4-1.8-4-4S100.8,35.9,103,35.9z M75,39.9c0-2.2,1.8-4,4-4s4,1.8,4,4s-1.8,4-4,4
			S75,42.1,75,39.9z M79.8,70.3l-1.4-4.8l27.4-8l1.4,4.8L79.8,70.3z"/>
		<path id="icon-angry-7" class="st1" d="M151,35.9c-8.8,0-16,7.2-16,16s7.2,16,16,16s16-7.2,16-16S159.8,35.9,151,35.9z M153,47.8
			c0.1-1.5,1.4-2.5,2.5-3c1.1-0.6,2.2-0.9,2.3-0.9c0.5-0.1,1.1,0.2,1.2,0.7s-0.2,1.1-0.7,1.2c-0.6,0.1-1.2,0.4-1.8,0.7
			c0.3,0.4,0.5,0.9,0.5,1.4c0,1.1-0.9,2-2,2S153,49,153,47.8L153,47.8L153,47.8z M143,44.7c0.2-0.6,0.7-0.9,1.2-0.8
			c0,0,1.1,0.3,2.2,0.8c1.1,0.6,2.5,1.6,2.6,3v0.1c0,1.1-0.9,2-2,2s-2-0.9-2-2c0-0.5,0.2-1,0.5-1.4c-0.5-0.1-1.2-0.4-1.7-0.5
			C143.2,45.7,142.9,45.2,143,44.7L143,44.7z M157,60.3c-1.2-2-3.5-3.4-6-3.4s-4.8,1.4-6,3.4l-2.6-1.5c1.8-3,5-4.9,8.6-4.9
			s6.8,1.9,8.6,4.9L157,60.3z"/>
	</g>
</g>
</svg>
